<?xml version="1.0" encoding="UTF-8"?><svg xmlns="http://www.w3.org/2000/svg" viewBox="0 0 145.87 68.46"><defs><style>.d{fill:#fff;stroke-width:2px;}.d,.e{stroke:#000;}.e{stroke-width:8px;}</style></defs><g id="a"/><g id="b"><g id="c"><g><path class="e" d="M38.27,28.73c-1.14,1.57-2.84,2.73-5.09,3.47-2.25,.74-4.58,1.11-6.97,1.09-2.46-.04-4.84-.56-7.15-1.57-2.31-1.01-3.82-2.59-4.53-4.74-.39-1.25-.64-2.59-.74-4-.1-1.41-.08-2.78,.06-4.11,0-1,.54-1.74,1.61-2.22,1.07-.48,2.24-.75,3.52-.81,1.27-.06,2.44,.07,3.49,.39,1.05,.32,1.56,.77,1.52,1.35,.01,.92,.01,2.12,0,3.57-.01,1.46,.65,2.2,1.98,2.22,.86,.03,1.39-.26,1.59-.85,.2-.6,.33-1.26,.39-2,.2-2.85,.17-5.62-.1-8.3s-.36-4.49-.28-5.42c.06-.79,.65-1.4,1.75-1.84s2.31-.71,3.64-.79c1.32-.08,2.56,0,3.72,.28,1.16,.27,1.83,.71,2.02,1.35,.24,.89,.5,2.4,.79,4.54,.29,2.14,.47,4.42,.55,6.83,.08,2.41,0,4.71-.23,6.88s-.74,3.73-1.51,4.68Z"/><path class="e" d="M70.5,20.8c-.66,3.99-2.59,7.21-5.8,9.65-3.21,2.44-6.95,3.31-11.2,2.6-4.1-.68-7.33-2.64-9.69-5.87-2.36-3.23-3.22-6.81-2.58-10.74,.6-3.65,2.36-6.71,5.29-9.19s6.34-3.54,10.23-3.2c4.69,.41,8.33,2.19,10.94,5.34,2.6,3.15,3.54,6.95,2.82,11.4Zm-10.91-1.61c.18-1.09-.03-2.02-.62-2.78s-1.45-1.24-2.57-1.43c-1.06-.18-2,.05-2.81,.69-.81,.64-1.29,1.45-1.44,2.42-.2,1.18,.13,2.22,.99,3.13,.86,.91,1.93,1.28,3.19,1.13,.87-.09,1.6-.43,2.19-1.03,.58-.6,.94-1.3,1.08-2.13Z"/><path class="e" d="M83.76,32.34c-.24,.49-1.43,.79-3.58,.9-2.15,.11-3.68-.05-4.59-.46-.41-.19-.8-1.49-1.19-3.91-.39-2.41-.72-5.12-1.01-8.12s-.5-5.89-.65-8.67-.18-4.64-.1-5.58c.08-.77,.72-1.36,1.92-1.77,1.2-.41,2.52-.63,3.95-.67,1.43-.04,2.75,.08,3.95,.39,1.2,.3,1.84,.77,1.92,1.41,.11,1.08,.21,2.35,.28,3.83,.07,1.48,.12,3.03,.14,4.67,1.08-.05,2.2-.09,3.38-.11-.05-1.62-.07-3.16-.07-4.61s.05-2.71,.12-3.77c.04-.65,.65-1.12,1.84-1.43,1.19-.31,2.5-.45,3.93-.41s2.76,.26,3.98,.66c1.22,.4,1.89,.99,2,1.76,.13,.94,.17,2.8,.14,5.58s-.13,5.67-.28,8.68c-.16,3.01-.38,5.72-.67,8.12-.29,2.41-.62,3.71-1,3.9-.89,.43-2.4,.6-4.55,.5-2.15-.09-3.35-.39-3.62-.88-.2-.27-.41-1.04-.61-2.31-.2-1.27-.39-2.82-.55-4.65-.71,.14-1.43,.26-2.16,.37s-1.44,.21-2.14,.29c-.1,1.66-.22,3.06-.36,4.2-.14,1.14-.29,1.84-.46,2.11Z"/><path class="e" d="M129.1,32.34c-.15,.3-.61,.53-1.37,.67-.76,.14-1.6,.22-2.52,.25s-1.8,0-2.64-.08c-.84-.08-1.42-.18-1.72-.32-.43-.19-1.06-.69-1.88-1.51-.82-.82-1.67-1.7-2.53-2.66-.86-.96-1.65-1.86-2.36-2.71s-1.16-1.41-1.35-1.67c-.19,2.25-.39,4.19-.59,5.8-.2,1.62-.46,2.5-.78,2.65-.94,.43-2.55,.6-4.84,.49-2.29-.1-3.55-.41-3.79-.91-.28-.38-.52-1.65-.71-3.82s-.33-4.66-.4-7.47c-.07-2.81-.07-5.66,0-8.55,.08-2.89,.26-5.24,.55-7.07,.05-.37,.5-.65,1.34-.85,.84-.2,1.81-.31,2.91-.34,1.1-.03,2.2,.02,3.31,.14,1.11,.13,1.96,.32,2.55,.57,.88,.39,1.97,1.44,3.28,3.13,1.31,1.7,2.26,2.98,2.86,3.86-.04-1.36-.08-2.56-.12-3.6-.04-1.04-.04-1.81,0-2.31,.02-.61,.61-1.07,1.75-1.39,1.14-.32,2.39-.5,3.75-.54,1.36-.04,2.62,.05,3.76,.28,1.15,.23,1.75,.58,1.81,1.04,.19,1.86,.31,4.24,.35,7.14,.04,2.9,.04,5.76,0,8.57-.04,2.81-.13,5.29-.26,7.44-.13,2.15-.26,3.4-.4,3.75Z"/></g><polygon points="21.27 28.32 15.1 43.57 139.27 55.32 124.27 24.32 21.27 28.32"/><g><path class="e" d="M24.42,52.25c1.29,1.08,2.43,2.12,3.4,3.14s1.47,1.77,1.48,2.28c0,.37-.21,.91-.63,1.63-.42,.72-.9,1.44-1.44,2.17-.54,.72-1.07,1.36-1.58,1.9-.51,.54-.85,.82-1.04,.82-.82,.16-2.02-.26-3.6-1.28-1.58-1.02-2.85-1.69-3.81-2.02-.94-.29-1.44-.17-1.52,.36,.01,.91-.07,1.61-.25,2.09-.18,.48-.8,.78-1.86,.89-1.22,.13-2.61,.2-4.17,.21s-2.56-.03-2.97-.11c-.29-.05-.53-.22-.7-.49-.25-.34-.53-1.91-.82-4.71-.29-2.8-.52-5.83-.68-9.1-.17-3.27-.24-6.27-.22-9.01,.02-2.74,.22-4.21,.6-4.43,1.38-.77,3.23-1.33,5.55-1.67,2.32-.34,4.63-.28,6.93,.18,2.3,.46,4.36,1.41,6.18,2.85s2.93,3.54,3.33,6.32c.52,3.7-.2,6.37-2.17,8Zm-9.56-3.61c.96-.1,1.71-.46,2.24-1.06,.53-.61,.79-1.24,.79-1.9,0-.66-.31-1.23-.91-1.71s-1.54-.65-2.8-.51c-1.04,.11-1.45,1.04-1.23,2.77,.22,1.73,.86,2.54,1.91,2.42Z"/><path class="e" d="M59.61,51.96c-.66,3.99-2.59,7.21-5.8,9.65-3.21,2.44-6.95,3.31-11.2,2.6-4.1-.68-7.33-2.64-9.69-5.87-2.36-3.23-3.22-6.81-2.58-10.74,.6-3.65,2.36-6.71,5.29-9.19s6.34-3.54,10.23-3.2c4.69,.41,8.33,2.19,10.94,5.34,2.6,3.15,3.54,6.95,2.82,11.4Zm-10.91-1.61c.18-1.09-.03-2.02-.62-2.78s-1.45-1.24-2.57-1.43c-1.06-.18-2,.05-2.81,.69-.81,.64-1.29,1.45-1.44,2.42-.2,1.18,.13,2.22,.99,3.13,.86,.91,1.93,1.28,3.19,1.13,.87-.09,1.6-.43,2.19-1.03,.58-.6,.94-1.3,1.08-2.13Z"/><path class="e" d="M62.1,63.8c-.24-.25-.37-.56-.38-.93-.03-1.23,.19-3.08,.65-5.55,.46-2.47,1.03-5.04,1.71-7.71,.68-2.67,1.41-5.17,2.18-7.5,.77-2.33,1.43-3.97,2-4.92,.23-.37,.9-.7,2-1,1.11-.3,2.33-.5,3.68-.62s2.63-.11,3.88,0c1.24,.12,2.11,.41,2.6,.86,.71,.68,1.55,2.19,2.52,4.5,.97,2.32,1.92,4.84,2.84,7.57,.92,2.73,1.75,5.35,2.49,7.86s1.22,4.28,1.46,5.32c.16,.76,.11,1.29-.15,1.59-.27,.3-.73,.5-1.39,.62-1.12,.19-2.5,.33-4.15,.43-1.65,.09-2.69,.12-3.11,.07-.16-.03-.32-.08-.46-.17-.46-.28-.9-1.08-1.32-2.4-.42-1.32-.84-2.23-1.24-2.73-.24-.29-.56-.46-.95-.51l-3.12-.02c-.98,.03-1.61,.35-1.9,.97-.38,.8-.81,1.68-1.29,2.66s-.84,1.58-1.06,1.8c-.11,.14-.29,.24-.51,.29-.52,.11-1.75,.14-3.68,.09-1.93-.06-3.03-.25-3.3-.58Zm12.31-16.76c-.42,.44-.83,1.19-1.24,2.23s-.56,1.73-.45,2.06c.19,.56,1.01,.81,2.46,.75s2.24-.41,2.37-1.05c.08-.39-.3-1.29-1.14-2.69-.84-1.4-1.5-1.83-2-1.3Z"/><path class="e" d="M109.38,45.25c-.56,.03-1.11,.06-1.66,.09-.55,.04-1.09,.1-1.61,.19-1.33,.27-2.54,.9-3.62,1.89-1.08,.99-1.48,2.23-1.19,3.7,.14,.67,.46,1.2,.95,1.58,.79,.62,1.83,.92,3.14,.88,1.3-.03,2.43-.16,3.38-.37,.53-.18,1.05-.15,1.56,.08,.47,.23,.89,.62,1.27,1.18,.6,.91,1,2.13,1.23,3.65,.22,1.52,.14,2.77-.26,3.76-.32,.81-.8,1.29-1.44,1.44-2.08,.76-4.36,1.13-6.86,1.11-2.5-.02-4.73-.48-6.71-1.38-2.67-1.2-4.72-2.98-6.14-5.32-1.42-2.34-1.98-5.02-1.69-8.02,.49-4.75,2.38-8.46,5.64-11.13,3.27-2.67,7.33-3.75,12.2-3.23,.81,.09,1.53,.51,2.15,1.27,.61,.76,1.11,2.08,1.51,3.97s.16,3.27-.71,4.14c-.33,.33-.71,.5-1.14,.51Z"/><path class="e" d="M125.47,63.5c-.24,.49-1.43,.79-3.58,.9s-3.68-.05-4.59-.46c-.41-.19-.8-1.49-1.19-3.91-.39-2.41-.72-5.12-1.01-8.12-.28-3-.5-5.89-.65-8.67s-.18-4.64-.1-5.58c.08-.77,.72-1.36,1.92-1.77,1.2-.41,2.52-.63,3.95-.67,1.43-.04,2.75,.08,3.95,.39,1.2,.3,1.84,.77,1.92,1.41,.11,1.08,.21,2.35,.28,3.83,.07,1.48,.12,3.03,.14,4.67,1.08-.05,2.2-.09,3.38-.11-.05-1.62-.07-3.16-.07-4.61,0-1.45,.05-2.71,.12-3.77,.04-.65,.65-1.12,1.84-1.43,1.19-.31,2.5-.45,3.93-.41,1.43,.04,2.76,.26,3.98,.66,1.22,.4,1.89,.99,2,1.76,.13,.94,.17,2.8,.14,5.58-.03,2.78-.13,5.67-.29,8.68-.16,3.01-.38,5.72-.67,8.12-.29,2.41-.62,3.71-1,3.9-.89,.43-2.4,.6-4.55,.5-2.15-.09-3.35-.39-3.62-.88-.2-.27-.41-1.04-.61-2.31-.2-1.27-.39-2.82-.55-4.65-.71,.14-1.43,.26-2.16,.37s-1.44,.21-2.14,.29c-.1,1.66-.22,3.06-.36,4.2-.14,1.14-.29,1.84-.46,2.11Z"/></g><g><path class="d" d="M36.27,25.73c-1.14,1.57-2.84,2.73-5.09,3.47-2.25,.74-4.58,1.11-6.97,1.09-2.46-.04-4.84-.56-7.15-1.57-2.31-1.01-3.82-2.59-4.53-4.74-.39-1.25-.64-2.59-.74-4-.1-1.41-.08-2.78,.06-4.11,0-1,.54-1.74,1.61-2.22,1.07-.48,2.24-.75,3.52-.81,1.27-.06,2.44,.07,3.49,.39,1.05,.32,1.56,.77,1.52,1.35,.01,.92,.01,2.12,0,3.57-.01,1.46,.65,2.2,1.98,2.22,.86,.03,1.39-.26,1.59-.85,.2-.6,.33-1.26,.39-2,.2-2.85,.17-5.62-.1-8.3s-.36-4.49-.28-5.42c.06-.79,.65-1.4,1.75-1.84s2.31-.71,3.64-.79c1.32-.08,2.56,0,3.72,.28,1.16,.27,1.83,.71,2.02,1.35,.24,.89,.5,2.4,.79,4.54,.29,2.14,.47,4.42,.55,6.83,.08,2.41,0,4.71-.23,6.88s-.74,3.73-1.51,4.68Z"/><path class="d" d="M68.5,17.8c-.66,3.99-2.59,7.21-5.8,9.65-3.21,2.44-6.95,3.31-11.2,2.6-4.1-.68-7.33-2.64-9.69-5.87-2.36-3.23-3.22-6.81-2.58-10.74,.6-3.65,2.36-6.71,5.29-9.19s6.34-3.54,10.23-3.2c4.69,.41,8.33,2.19,10.94,5.34,2.6,3.15,3.54,6.95,2.82,11.4Zm-10.91-1.61c.18-1.09-.03-2.02-.62-2.78s-1.45-1.24-2.57-1.43c-1.06-.18-2,.05-2.81,.69-.81,.64-1.29,1.45-1.44,2.42-.2,1.18,.13,2.22,.99,3.13,.86,.91,1.93,1.28,3.19,1.13,.87-.09,1.6-.43,2.19-1.03,.58-.6,.94-1.3,1.08-2.13Z"/><path class="d" d="M81.76,29.34c-.24,.49-1.43,.79-3.58,.9-2.15,.11-3.68-.05-4.59-.46-.41-.19-.8-1.49-1.19-3.91-.39-2.41-.72-5.12-1.01-8.12s-.5-5.89-.65-8.67-.18-4.64-.1-5.58c.08-.77,.72-1.36,1.92-1.77,1.2-.41,2.52-.63,3.95-.67,1.43-.04,2.75,.08,3.95,.39,1.2,.3,1.84,.77,1.92,1.41,.11,1.08,.21,2.35,.28,3.83,.07,1.48,.12,3.03,.14,4.67,1.08-.05,2.2-.09,3.38-.11-.05-1.62-.07-3.16-.07-4.61s.05-2.71,.12-3.77c.04-.65,.65-1.12,1.84-1.43,1.19-.31,2.5-.45,3.93-.41s2.76,.26,3.98,.66c1.22,.4,1.89,.99,2,1.76,.13,.94,.17,2.8,.14,5.58s-.13,5.67-.28,8.68c-.16,3.01-.38,5.72-.67,8.12-.29,2.41-.62,3.71-1,3.9-.89,.43-2.4,.6-4.55,.5-2.15-.09-3.35-.39-3.62-.88-.2-.27-.41-1.04-.61-2.31-.2-1.27-.39-2.82-.55-4.65-.71,.14-1.43,.26-2.16,.37s-1.44,.21-2.14,.29c-.1,1.66-.22,3.06-.36,4.2-.14,1.14-.29,1.84-.46,2.11Z"/><path class="d" d="M127.1,29.34c-.15,.3-.61,.53-1.37,.67-.76,.14-1.6,.22-2.52,.25s-1.8,0-2.64-.08c-.84-.08-1.42-.18-1.72-.32-.43-.19-1.06-.69-1.88-1.51-.82-.82-1.67-1.7-2.53-2.66-.86-.96-1.65-1.86-2.36-2.71s-1.16-1.41-1.35-1.67c-.19,2.25-.39,4.19-.59,5.8-.2,1.62-.46,2.5-.78,2.65-.94,.43-2.55,.6-4.84,.49-2.29-.1-3.55-.41-3.79-.91-.28-.38-.52-1.65-.71-3.82s-.33-4.66-.4-7.47c-.07-2.81-.07-5.66,0-8.55,.08-2.89,.26-5.24,.55-7.07,.05-.37,.5-.65,1.34-.85,.84-.2,1.81-.31,2.91-.34,1.1-.03,2.2,.02,3.31,.14,1.11,.13,1.96,.32,2.55,.57,.88,.39,1.97,1.44,3.28,3.13,1.31,1.7,2.26,2.98,2.86,3.86-.04-1.36-.08-2.56-.12-3.6-.04-1.04-.04-1.81,0-2.31,.02-.61,.61-1.07,1.75-1.39,1.14-.32,2.39-.5,3.75-.54,1.36-.04,2.62,.05,3.76,.28,1.15,.23,1.75,.58,1.81,1.04,.19,1.86,.31,4.24,.35,7.14,.04,2.9,.04,5.76,0,8.57-.04,2.81-.13,5.29-.26,7.44-.13,2.15-.26,3.4-.4,3.75Z"/></g><g><path class="d" d="M22.42,48.25c1.29,1.08,2.43,2.12,3.4,3.14s1.47,1.77,1.48,2.28c0,.37-.21,.91-.63,1.63-.42,.72-.9,1.44-1.44,2.17-.54,.72-1.07,1.36-1.58,1.9-.51,.54-.85,.82-1.04,.82-.82,.16-2.02-.26-3.6-1.28-1.58-1.02-2.85-1.69-3.81-2.02-.94-.29-1.44-.17-1.52,.36,.01,.91-.07,1.61-.25,2.09-.18,.48-.8,.78-1.86,.89-1.22,.13-2.61,.2-4.17,.21s-2.56-.03-2.97-.11c-.29-.05-.53-.22-.7-.49-.25-.34-.53-1.91-.82-4.71-.29-2.8-.52-5.83-.68-9.1-.17-3.27-.24-6.27-.22-9.01,.02-2.74,.22-4.21,.6-4.43,1.38-.77,3.23-1.33,5.55-1.67,2.32-.34,4.63-.28,6.93,.18,2.3,.46,4.36,1.41,6.18,2.85s2.93,3.54,3.33,6.32c.52,3.7-.2,6.37-2.17,8Zm-9.56-3.61c.96-.1,1.71-.46,2.24-1.06,.53-.61,.79-1.24,.79-1.9,0-.66-.31-1.23-.91-1.71s-1.54-.65-2.8-.51c-1.04,.11-1.45,1.04-1.23,2.77,.22,1.73,.86,2.54,1.91,2.42Z"/><path class="d" d="M57.61,47.96c-.66,3.99-2.59,7.21-5.8,9.65-3.21,2.44-6.95,3.31-11.2,2.6-4.1-.68-7.33-2.64-9.69-5.87-2.36-3.23-3.22-6.81-2.58-10.74,.6-3.65,2.36-6.71,5.29-9.19s6.34-3.54,10.23-3.2c4.69,.41,8.33,2.19,10.94,5.34,2.6,3.15,3.54,6.95,2.82,11.4Zm-10.91-1.61c.18-1.09-.03-2.02-.62-2.78s-1.45-1.24-2.57-1.43c-1.06-.18-2,.05-2.81,.69-.81,.64-1.29,1.45-1.44,2.42-.2,1.18,.13,2.22,.99,3.13,.86,.91,1.93,1.28,3.19,1.13,.87-.09,1.6-.43,2.19-1.03,.58-.6,.94-1.3,1.08-2.13Z"/><path class="d" d="M60.1,59.8c-.24-.25-.37-.56-.38-.93-.03-1.23,.19-3.08,.65-5.55,.46-2.47,1.03-5.04,1.71-7.71,.68-2.67,1.41-5.17,2.18-7.5,.77-2.33,1.43-3.97,2-4.92,.23-.37,.9-.7,2-1,1.11-.3,2.33-.5,3.68-.62s2.63-.11,3.88,0c1.24,.12,2.11,.41,2.6,.86,.71,.68,1.55,2.19,2.52,4.5,.97,2.32,1.92,4.84,2.84,7.57,.92,2.73,1.75,5.35,2.49,7.86s1.22,4.28,1.46,5.32c.16,.76,.11,1.29-.15,1.59-.27,.3-.73,.5-1.39,.62-1.12,.19-2.5,.33-4.15,.43-1.65,.09-2.69,.12-3.11,.07-.16-.03-.32-.08-.46-.17-.46-.28-.9-1.08-1.32-2.4-.42-1.32-.84-2.23-1.24-2.73-.24-.29-.56-.46-.95-.51l-3.12-.02c-.98,.03-1.61,.35-1.9,.97-.38,.8-.81,1.68-1.29,2.66s-.84,1.58-1.06,1.8c-.11,.14-.29,.24-.51,.29-.52,.11-1.75,.14-3.68,.09-1.93-.06-3.03-.25-3.3-.58Zm12.31-16.76c-.42,.44-.83,1.19-1.24,2.23s-.56,1.73-.45,2.06c.19,.56,1.01,.81,2.46,.75s2.24-.41,2.37-1.05c.08-.39-.3-1.29-1.14-2.69-.84-1.4-1.5-1.83-2-1.3Z"/><path class="d" d="M107.38,41.25c-.56,.03-1.11,.06-1.66,.09-.55,.04-1.09,.1-1.61,.19-1.33,.27-2.54,.9-3.62,1.89-1.08,.99-1.48,2.23-1.19,3.7,.14,.67,.46,1.2,.95,1.58,.78,.62,1.83,.92,3.14,.88,1.3-.03,2.43-.16,3.38-.37,.53-.18,1.05-.15,1.56,.08,.47,.23,.89,.62,1.27,1.18,.6,.91,1,2.13,1.23,3.65,.22,1.52,.14,2.77-.26,3.76-.32,.81-.8,1.29-1.44,1.44-2.08,.76-4.36,1.13-6.86,1.11-2.5-.02-4.73-.48-6.71-1.38-2.67-1.2-4.72-2.98-6.14-5.32-1.42-2.34-1.98-5.02-1.69-8.02,.49-4.75,2.38-8.46,5.64-11.13,3.27-2.67,7.33-3.75,12.2-3.23,.81,.09,1.53,.51,2.15,1.27,.61,.76,1.11,2.08,1.51,3.97s.16,3.27-.71,4.14c-.33,.33-.71,.5-1.14,.51Z"/><path class="d" d="M123.47,59.5c-.24,.49-1.43,.79-3.58,.9s-3.68-.05-4.59-.46c-.41-.19-.8-1.49-1.19-3.91-.39-2.41-.72-5.12-1.01-8.12-.28-3-.5-5.89-.65-8.67s-.18-4.64-.1-5.58c.08-.77,.72-1.36,1.92-1.77,1.2-.41,2.52-.63,3.95-.67,1.43-.04,2.75,.08,3.95,.39,1.2,.3,1.84,.77,1.92,1.41,.11,1.08,.21,2.35,.28,3.83,.07,1.48,.12,3.03,.14,4.67,1.08-.05,2.2-.09,3.38-.11-.05-1.62-.07-3.16-.07-4.61,0-1.45,.05-2.71,.12-3.77,.04-.65,.65-1.12,1.84-1.43,1.19-.31,2.5-.45,3.93-.41,1.43,.04,2.76,.26,3.98,.66,1.22,.4,1.89,.99,2,1.76,.13,.94,.17,2.8,.14,5.58-.03,2.78-.13,5.67-.29,8.68-.16,3.01-.38,5.72-.67,8.12-.29,2.41-.62,3.71-1,3.9-.89,.43-2.4,.6-4.55,.5-2.15-.09-3.35-.39-3.62-.88-.2-.27-.41-1.04-.61-2.31-.2-1.27-.39-2.82-.55-4.65-.71,.14-1.43,.26-2.16,.37s-1.44,.21-2.14,.29c-.1,1.66-.22,3.06-.36,4.2-.14,1.14-.29,1.84-.46,2.11Z"/></g></g></g></svg>